<?xml version="1.0" standalone="no"?>
<!DOCTYPE svg PUBLIC "-//W3C//DTD SVG 20010904//EN"
 "http://www.w3.org/TR/2001/REC-SVG-20010904/DTD/svg10.dtd">
<svg version="1.0" xmlns="http://www.w3.org/2000/svg"
 width="12px" height="12px" viewBox="0 0 860.000000 609.000000"
 preserveAspectRatio="xMidYMid meet">

<g transform="translate(0.000000,609.000000) scale(0.100000,-0.100000)"
fill="#337ab7" stroke="none">
<path d="M1665 5344 c-192 -185 -351 -339 -353 -343 -2 -6 1045 -1013 1909
-1836 70 -66 126 -123 125 -127 0 -4 -453 -440 -1006 -969 -553 -529 -1006
-965 -1008 -969 -4 -9 709 -692 719 -688 11 4 2737 2612 2738 2619 1 3 -288
283 -641 621 -354 338 -975 932 -1381 1321 -407 389 -742 707 -745 707 -4 -1
-164 -152 -357 -336z"/>
<path d="M4165 5343 c-192 -185 -351 -339 -353 -342 -2 -6 1835 -1771 1991
-1914 l52 -48 -75 -72 c-41 -39 -496 -474 -1010 -966 -514 -492 -936 -898
-938 -901 -4 -9 704 -685 717 -685 6 0 394 367 863 816 469 449 1083 1036
1363 1304 281 268 511 491 513 495 3 8 -2742 2639 -2761 2645 -6 2 -169 -147
-362 -332z"/>
</g>
</svg>
